<svg width="32" height="32" viewBox="0 0 32 32" fill="none" xmlns="http://www.w3.org/2000/svg">
<g clip-path="url(#clip0_1_452)">
<path fill-rule="evenodd" clip-rule="evenodd" d="M9.6 16C9.6 12.4654 12.4654 9.6 16 9.6C16.3389 9.6 16.6717 9.62634 16.9964 9.6771C16.868 9.13898 16.8 8.57743 16.8 8C16.8 4.76028 18.9397 2.02031 21.8831 1.11624C20.0621 0.395854 18.0773 0 16 0C7.16344 0 0 7.16344 0 16C0 24.8366 7.16344 32 16 32C24.8366 32 32 24.8366 32 16C32 13.9227 31.6041 11.9379 30.8838 10.1169C29.9797 13.0603 27.2397 15.2 24 15.2C23.4226 15.2 22.861 15.132 22.3229 15.0036C22.3737 15.3283 22.4 15.6611 22.4 16C22.4 19.5346 19.5346 22.4 16 22.4C12.4654 22.4 9.6 19.5346 9.6 16Z" fill="url(#paint0_linear_1_452)"/>
<path d="M27.3137 4.8471C25.4392 2.97258 22.4 2.97258 20.5255 4.8471C18.651 6.72162 18.651 9.76081 20.5255 11.6353L27.3137 4.8471ZM20.5255 11.6353C23.0248 14.1347 23.0248 18.1869 20.5255 20.6863L27.3137 27.4745C33.5621 21.2261 33.5621 11.0955 27.3137 4.8471L20.5255 11.6353ZM20.5255 20.6863C18.0261 23.1856 13.9739 23.1856 11.4745 20.6863L4.68629 27.4745C10.9347 33.7229 21.0653 33.7229 27.3137 27.4745L20.5255 20.6863Z" fill="#4279CD" fill-opacity="0.2"/>
<path d="M31.9998 16.0002C31.9998 13.3492 29.8508 11.2002 27.1998 11.2002C24.5488 11.2002 22.3998 13.3492 22.3998 16.0002L31.9998 16.0002ZM22.3998 16.0002C22.3998 19.5348 19.5344 22.4002 15.9998 22.4002L15.9998 32.0002C24.8364 32.0002 31.9998 24.8368 31.9998 16.0002L22.3998 16.0002ZM15.9998 22.4002C12.4652 22.4002 9.5998 19.5348 9.5998 16.0002L-0.000195993 16.0002C-0.000195607 24.8368 7.16325 32.0002 15.9998 32.0002L15.9998 22.4002Z" fill="#4279CD" fill-opacity="0.4"/>
</g>
<defs>
<linearGradient id="paint0_linear_1_452" x1="4.57143" y1="16" x2="23.1579" y2="16" gradientUnits="userSpaceOnUse">
<stop stop-color="#4279CD"/>
<stop offset="1" stop-color="#4279CD" stop-opacity="0"/>
</linearGradient>
<clipPath id="clip0_1_452">
<rect width="32" height="32" fill="white"/>
</clipPath>
</defs>
</svg>
